# xmcd
#
# Track frame offsets:
#	150
#	15051
#	26544
#	39696
#	49471
#	60698
#	71910
#	85218
#	96367
#	107298
#	119306
#	132989
#	144955
#	157884
#	170849
#
# Disc length: 2452 seconds
#
# Revision: 1
# Processed by: cddbd v1.5.2PL0 Copyright (c) Steve Scherf et al.
# Submitted via: audiograbber 1.83.01
#
DISCID=c609920f
DTITLE=Jones, George - When the Grass Grows Over Me
DYEAR=2004
DGENRE=Country
TTITLE0=Family Bible
TTITLE1=Daddy Sang Bass
TTITLE2=Flowers for Mama
TTITLE3=If You Want to Wear a Crown
TTITLE4=Where We Never Grow Old
TTITLE5=How Beautiful Heaven Must Be
TTITLE6=That Old Rugged Cross
TTITLE7=Cup of Loneliness
TTITLE8=Won't It Be Wonderful There
TTITLE9=Small Time Laboring Man
TTITLE10=I'll Fly Away
TTITLE11=Bringing It Home
TTITLE12=If You Want to Wear a Crown
TTITLE13=Sweeter Than Flowers
TTITLE14=When the Grass Grows Over Me
EXTD=
EXTT0=
EXTT1=
EXTT2=
EXTT3=
EXTT4=
EXTT5=
EXTT6=
EXTT7=
EXTT8=
EXTT9=
EXTT10=
EXTT11=
EXTT12=
EXTT13=
EXTT14=
PLAYORDER=
